<svg width="24" height="24" viewBox="0 0 24 24" fill="none" xmlns="http://www.w3.org/2000/svg">
<path fill-rule="evenodd" clip-rule="evenodd" d="M12 1.95068C6.475 1.95068 2 6.42568 2 11.9507C2 16.3757 4.8625 20.1132 8.8375 21.4382C9.3375 21.5257 9.525 21.2257 9.525 20.9632C9.525 20.7257 9.5125 19.9382 9.5125 19.1007C7 19.5632 6.35 18.4882 6.15 17.9257C6.0375 17.6382 5.55 16.7507 5.125 16.5132C4.775 16.3257 4.275 15.8632 5.1125 15.8507C5.9 15.8382 6.4625 16.5757 6.65 16.8757C7.55 18.3882 8.9875 17.9632 9.5625 17.7007C9.65 17.0507 9.9125 16.6132 10.2 16.3632C7.975 16.1132 5.65 15.2507 5.65 11.4257C5.65 10.3382 6.0375 9.43818 6.675 8.73818C6.575 8.48818 6.225 7.46318 6.775 6.08818C6.775 6.08818 7.6125 5.82568 9.525 7.11318C10.325 6.88818 11.175 6.77568 12.025 6.77568C12.875 6.77568 13.725 6.88818 14.525 7.11318C16.4375 5.81318 17.275 6.08818 17.275 6.08818C17.825 7.46318 17.475 8.48818 17.375 8.73818C18.0125 9.43818 18.4 10.3257 18.4 11.4257C18.4 15.2632 16.0625 16.1132 13.8375 16.3632C14.2 16.6757 14.5125 17.2757 14.5125 18.2132C14.5125 19.5507 14.5 20.6257 14.5 20.9632C14.5 21.2257 14.6875 21.5382 15.1875 21.4382C17.1727 20.768 18.8977 19.4922 20.1198 17.7902C21.3419 16.0883 21.9995 14.0459 22 11.9507C22 6.42568 17.525 1.95068 12 1.95068Z" fill="currentcolor"/>
</svg>
